{"title":"Waiting Hindi 2016 DesiSCR x264-Hindify.mp4","uid":15578293,"size":689462402,"categoryP":"video","categoryS":"movies","magnet":"?xt=urn:btih:3423d06bac04216a6f00d279c62433dd78f709fe&amp;dn=Waiting+Hindi+2016+DesiSCR+x264-Hindify.mp4&amp;tr=udp%3A%2F%2Ftracker.leechers-paradise.org%3A6969&amp;tr=udp%3A%2F%2Fzer0day.ch%3A1337&amp;tr=udp%3A%2F%2Fopen.demonii.com%3A1337&amp;tr=udp%3A%2F%2Ftracker.coppersurfer.tk%3A6969&amp;tr=udp%3A%2F%2Fexodus.desync.com%3A6969","seeders":0,"leechers":1,"uploader":"PornyXXX","files":1,"time":1471369331,"description":"Waiting Hindi 2016 DesiSCR x264-Hindify.mp4\r\n\r\nScreenshots:\r\n \nhttp://extraimago.com/images/2016/08/16/vlcsnap-2016-08-16-12h39m21s348.png \nhttp://extraimago.com/images/2016/08/16/vlcsnap-2016-08-16-12h39m17s348.png \nhttp://extraimago.com/images/2016/08/16/vlcsnap-2016-08-16-12h39m14s090.png \nhttp://extraimago.com/images/2016/08/16/vlcsnap-2016-08-16-12h39m08s928.png \nhttp://extraimago.com/images/2016/08/16/vlcsnap-2016-08-16-12h39m05s872.png\r\n\r\nInfo:\r\n\r\nFormat : MPEG-4\r\nFormat profile : Base Media\r\nCodec ID : isom (isom/iso2/avc1/mp41)\r\nFile size : 658 MiB\r\nDuration : 1 h 36 min\r\nOverall bit rate : 953 kb/s\r\nWriting application : Lavf57.25.100\r\n\r\nVideo\r\nID : 1\r\nFormat : AVC\r\nFormat/Info : Advanced Video Codec\r\nFormat profile :   \r\nFormat settings, CABAC : Yes\r\nFormat settings, ReFrames : 4 frames\r\nCodec ID : avc1\r\nCodec ID/Info : Advanced Video Coding\r\nDuration : 1 h 36 min\r\nBit rate : 820 kb/s\r\nWidth : 720 pixels\r\nHeight : 304 pixels\r\nDisplay aspect ratio : 2.35:1\r\nFrame rate mode : Variable\r\nFrame rate : 23.976 FPS\r\nMinimum frame rate : 23.564 FPS\r\nMaximum frame rate : 24.390 FPS\r\nColor space : YUV\r\nChroma subsampling : 4:2:0\r\nBit depth : 8 bits\r\nScan type : Progressive\r\nBits/(Pixel*Frame) : 0.156\r\nStream size : 564 MiB (86%)\r\nWriting library : x264 core 142 r2479 dd79a61\r\nEncoding settings : cabac=1 / ref=2 / deblock=1:0:0 / analyse=0x1:0x111 / me=hex / subme=4 / psy=1 / psy_rd=1.00:0.00 / mixed_ref=0 / me_range=16 / chroma_me=1 / trellis=1 / 8x8dct=0 / cqm=0 / deadzone=21,11 / fast_pskip=1 / chroma_qp_offset=0 / threads=6 / lookahead_threads=1 / sliced_threads=0 / nr=0 / decimate=1 / interlaced=0 / bluray_compat=0 / constrained_intra=0 / bframes=3 / b_pyramid=2 / b_adapt=1 / b_bias=0 / direct=1 / weightb=1 / open_gop=0 / weightp=1 / keyint=240 / keyint_min=24 / scenecut=40 / intra_refresh=0 / rc_lookahead=20 / rc=abr / mbtree=1 / bitrate=820 / ratetol=1.0 / qcomp=0.60 / qpmin=0 / qpmax=69 / qpstep=4 / vbv_maxrate=20000 / vbv_bufsize=25000 / nal_hrd=none / filler=0 / ip_ratio=1.40 / aq=1:1.00\r\nColor range : Limited\r\nColor primaries : BT.601 NTSC\r\nTransfer characteristics : BT.709\r\nMatrix coefficients : BT.601\r\n\r\nAudio\r\nID : 2\r\nFormat : AAC\r\nFormat/Info : Advanced Audio Codec\r\nFormat profile : LC\r\nCodec ID : 40\r\nDuration : 1 h 36 min\r\nBit rate mode : Constant\r\nBit rate : 129 kb/s\r\nChannel(s) : 2 channels\r\nChannel positions : Front: L R\r\nSampling rate : 48.0 kHz\r\nFrame rate : 46.875 FPS (1024 spf)\r\nCompression mode : Lossy\r\nStream size : 88.9 MiB (14%)\r\nTitle : Surround\r\nDefault : Yes\r\nAlternate group : 1 \r\n \nhttp://tvmoviereviews.drupalgardens.com/content/waiting-review","torrent":{"xt":"urn:btih:3423d06bac04216a6f00d279c62433dd78f709fe","amp;dn":"Waiting+Hindi+2016+DesiSCR+x264-Hindify.mp4","amp;tr":["udp%3A%2F%2Ftracker.leechers-paradise.org%3A6969","udp%3A%2F%2Fzer0day.ch%3A1337","udp%3A%2F%2Fopen.demonii.com%3A1337","udp%3A%2F%2Ftracker.coppersurfer.tk%3A6969","udp%3A%2F%2Fexodus.desync.com%3A6969"],"infoHash":"3423d06bac04216a6f00d279c62433dd78f709fe","infoHashBuffer":{"type":"Buffer","data":[52,35,208,107,172,4,33,106,111,0,210,121,198,36,51,221,120,247,9,254]},"announce":[],"urlList":[]}}